<?xml version="1.0" standalone="no"?>
<!DOCTYPE svg PUBLIC "-//W3C//DTD SVG 20010904//EN"
 "http://www.w3.org/TR/2001/REC-SVG-20010904/DTD/svg10.dtd">
<svg version="1.0" xmlns="http://www.w3.org/2000/svg"
 width="600.000000pt" height="196.000000pt" viewBox="0 0 600.000000 196.000000"
 preserveAspectRatio="xMidYMid meet">

<g transform="translate(0.000000,196.000000) scale(0.100000,-0.100000)"
fill="#000000" stroke="none">
<path d="M685 1660 c-182 -24 -302 -77 -389 -171 -121 -131 -163 -305 -153
-634 6 -207 23 -297 72 -403 45 -95 117 -167 215 -215 103 -51 168 -65 352
-78 333 -25 579 32 706 162 145 148 176 308 170 879 -3 406 -5 412 -82 450
-41 19 -59 20 -437 19 -217 -1 -421 -5 -454 -9z m191 -101 c-19 -23 -42 -63
-51 -89 -22 -67 -34 -225 -24 -332 19 -202 103 -289 308 -319 173 -25 359 8
440 78 40 34 43 35 36 12 -28 -89 -75 -144 -161 -185 -63 -30 -89 -36 -179
-44 -137 -11 -293 2 -370 31 -77 28 -152 102 -177 174 -55 156 -49 429 12 557
30 64 59 94 120 128 75 41 88 38 46 -11z m144 35 c0 -3 -9 -17 -20 -31 -36
-46 -54 -129 -54 -248 1 -191 45 -280 162 -326 48 -19 77 -23 187 -23 141 -1
190 9 250 50 20 14 40 23 42 20 11 -10 -7 -52 -38 -89 -59 -72 -144 -97 -327
-97 -257 0 -353 69 -381 273 -21 150 -7 287 39 376 22 44 91 101 122 101 10 0
18 -3 18 -6z m87 -11 c-3 -10 -13 -36 -21 -58 -20 -53 -21 -225 -1 -291 17
-59 63 -107 121 -128 95 -33 282 -28 341 10 30 19 33 18 33 -10 0 -30 -54 -79
-107 -97 -25 -9 -86 -14 -178 -14 -126 0 -145 2 -187 23 -103 51 -132 125
-126 325 4 141 13 173 66 230 30 31 68 38 59 10z m-385 -40 c-81 -97 -102
-179 -102 -390 0 -247 40 -361 156 -439 89 -59 180 -79 369 -79 204 1 302 26
384 100 50 45 52 31 10 -53 -74 -149 -224 -211 -515 -212 -213 0 -344 34 -430
112 -100 92 -137 212 -138 453 0 83 6 181 13 220 17 91 74 207 120 246 33 27
145 88 164 89 5 0 -10 -21 -31 -47z m462 18 c-13 -30 -16 -195 -5 -238 13 -49
54 -100 90 -115 67 -26 203 -27 284 -2 13 4 17 0 17 -19 0 -55 -80 -81 -238
-76 -99 4 -112 7 -151 32 -62 41 -84 96 -85 217 -1 109 6 152 33 197 15 24 25
30 41 26 15 -4 19 -10 14 -22z m-652 -38 c-56 -68 -90 -141 -113 -241 -16 -74
-18 -115 -15 -267 5 -201 18 -274 68 -367 57 -106 162 -179 307 -212 97 -22
395 -23 495 -1 94 20 192 68 244 118 l42 42 -14 -49 c-20 -66 -73 -152 -121
-193 -96 -84 -234 -122 -479 -130 -223 -8 -404 21 -511 82 -57 33 -132 116
-160 178 -93 203 -98 642 -10 835 51 112 141 199 242 237 63 23 67 17 25 -32z
m720 -15 c-5 -84 13 -160 46 -190 38 -36 83 -48 172 -48 62 0 79 -3 84 -16 9
-25 0 -32 -61 -44 -63 -13 -173 -5 -213 15 -69 36 -96 109 -87 233 7 96 13
114 41 110 19 -3 21 -8 18 -60z m113 7 c23 -13 61 -45 86 -72 47 -50 96 -139
84 -151 -14 -15 -159 -6 -193 12 -44 23 -71 83 -72 158 0 97 9 102 95 53z"/>
<path d="M3250 1585 l0 -64 -48 6 c-60 7 -104 -14 -129 -60 -25 -47 -25 -239
0 -284 32 -59 110 -80 167 -47 26 16 29 16 51 0 13 -9 42 -16 65 -16 35 0 43
4 48 23 11 41 7 85 -9 91 -13 4 -15 37 -15 211 l0 205 -65 0 -65 0 0 -65z m-2
-261 c2 -69 0 -83 -14 -88 -31 -12 -44 13 -44 83 0 69 11 94 40 89 12 -3 16
-21 18 -84z"/>
<path d="M5710 1412 l0 -239 25 -23 c16 -15 41 -24 73 -28 45 -4 50 -2 55 19
10 37 8 99 -3 99 -6 0 -10 75 -10 205 l0 205 -70 0 -70 0 0 -238z"/>
<path d="M2000 1380 l0 -250 70 0 70 0 0 94 0 95 53 3 52 3 0 55 0 55 -52 3
c-53 3 -53 3 -53 37 l0 34 68 3 67 3 3 58 3 57 -141 0 -140 0 0 -250z"/>
<path d="M5137 1583 c-4 -3 -7 -19 -7 -34 0 -20 -6 -28 -25 -33 -22 -6 -25
-11 -25 -55 0 -40 4 -50 19 -54 17 -4 20 -16 23 -122 3 -114 4 -117 31 -141
23 -19 39 -24 85 -24 31 0 62 4 68 8 7 4 14 30 15 57 4 50 4 50 -28 53 l-33 3
0 84 0 84 33 3 c31 3 32 4 32 53 0 49 -1 50 -30 50 -27 1 -30 4 -33 38 l-3 37
-58 0 c-32 0 -61 -3 -64 -7z"/>
<path d="M2846 1514 c-20 -11 -31 -13 -39 -5 -6 6 -37 11 -69 11 l-58 0 -1
-112 c-1 -62 -3 -133 -4 -158 -1 -25 1 -62 3 -82 l5 -38 63 0 c35 0 64 3 64 8
1 4 3 61 6 127 3 66 10 124 14 129 5 5 16 6 24 3 13 -5 16 -28 16 -137 l0
-130 70 0 70 0 0 159 c0 87 -5 172 -10 188 -18 51 -94 69 -154 37z"/>
<path d="M3486 1518 l-49 -11 6 -55 c3 -30 9 -58 14 -62 4 -5 31 -3 59 3 52
10 84 6 84 -12 0 -6 -12 -13 -27 -16 -117 -24 -143 -48 -143 -131 0 -76 28
-107 97 -108 35 -1 57 4 70 16 18 17 20 17 36 1 11 -12 34 -17 69 -18 l52 0 4
49 c3 37 0 51 -12 58 -13 7 -16 30 -16 126 -1 122 -5 138 -47 160 -26 14 -128
14 -197 0z m124 -251 c0 -22 -26 -51 -38 -43 -13 8 -16 39 -5 49 11 12 43 7
43 -6z"/>
<path d="M3961 1513 c-26 -13 -36 -14 -39 -5 -2 8 -26 12 -68 12 l-64 0 0
-195 0 -195 70 0 70 0 0 119 c0 133 4 151 31 151 18 0 19 -9 19 -135 l0 -135
73 0 73 0 0 124 c-1 128 6 155 38 143 13 -5 16 -28 16 -137 l0 -130 71 0 71 0
-4 176 -3 176 -28 24 c-35 30 -88 32 -137 5 -35 -18 -36 -18 -59 0 -29 24 -84
24 -130 2z"/>
<path d="M4455 1516 c-68 -30 -95 -84 -95 -189 1 -160 78 -224 239 -198 35 6
65 12 67 13 2 2 0 26 -5 53 -5 35 -11 49 -21 47 -62 -14 -107 -13 -123 3 -9 9
-17 21 -17 26 0 5 40 9 89 9 101 0 101 0 101 83 -1 73 -30 134 -74 152 -44 18
-121 19 -161 1z m93 -118 c21 -21 13 -38 -18 -38 -22 0 -30 5 -30 18 0 32 25
43 48 20z"/>
<path d="M4885 1513 c-20 -11 -30 -12 -33 -4 -2 7 -29 11 -68 11 l-64 0 0
-195 0 -195 70 0 69 0 3 133 c3 128 4 132 26 135 22 3 22 3 22 -132 l0 -136
70 0 70 0 1 38 c9 294 5 326 -41 349 -34 17 -89 16 -125 -4z"/>
<path d="M5415 1519 c-27 -6 -54 -14 -58 -18 -13 -13 18 -117 34 -113 8 2 37
6 65 9 40 4 52 2 57 -10 5 -12 -6 -18 -49 -27 -96 -20 -136 -77 -114 -160 19
-69 85 -98 153 -65 33 15 38 16 59 1 12 -9 41 -16 64 -16 35 0 43 4 48 23 11
41 7 85 -9 91 -12 4 -15 27 -15 120 0 107 -2 117 -24 143 -21 24 -31 27 -92
29 -38 2 -91 -2 -119 -7z m105 -263 c0 -29 -24 -41 -40 -20 -10 11 -10 17 0
29 19 23 40 18 40 -9z"/>
<path d="M2300 1351 c0 -153 2 -171 20 -194 27 -34 85 -44 136 -22 25 10 40
12 42 5 2 -5 32 -10 67 -10 l63 0 4 58 c1 31 1 119 -1 195 l-3 137 -69 0 -69
0 0 -135 0 -135 -25 0 -25 0 0 135 0 135 -70 0 -70 0 0 -169z"/>
<path d="M3730 607 c0 -113 3 -219 6 -236 8 -40 36 -59 94 -63 l45 -3 9 53 c6
38 6 56 -2 61 -8 5 -12 69 -14 196 l-3 190 -67 3 -68 3 0 -204z"/>
<path d="M3021 638 c16 -84 34 -182 39 -218 21 -123 6 -110 125 -110 58 0 105
4 105 9 0 11 68 417 75 449 5 21 3 22 -65 22 -82 0 -74 16 -91 -172 -6 -71
-15 -128 -19 -128 -4 0 -13 46 -20 103 -7 56 -15 122 -19 147 l-6 45 -76 3
-76 3 28 -153z"/>
<path d="M3432 678 c-29 -6 -42 -14 -39 -22 3 -8 8 -34 12 -59 l7 -45 34 10
c42 11 96 7 101 -8 2 -6 -20 -16 -50 -23 -68 -15 -93 -32 -107 -75 -14 -43 0
-104 30 -131 27 -24 103 -25 129 -1 13 12 21 14 26 6 12 -19 58 -32 91 -25 29
5 32 10 37 48 3 28 0 46 -9 53 -10 8 -14 38 -14 106 0 110 -11 151 -46 167
-30 13 -141 13 -202 -1z m116 -245 c-2 -17 -9 -28 -18 -28 -19 0 -26 35 -8 46
23 15 29 10 26 -18z"/>
<path d="M3917 684 c-4 -4 -7 -73 -7 -153 0 -119 3 -152 18 -181 16 -33 21
-35 69 -38 29 -2 62 2 73 8 16 8 25 8 35 0 7 -6 37 -10 67 -8 l53 3 3 183 2
182 -55 2 c-30 0 -60 1 -65 2 -7 1 -12 -45 -14 -123 -3 -91 -7 -125 -17 -132
-27 -16 -34 12 -34 134 l0 122 -60 3 c-34 2 -64 0 -68 -4z"/>
<path d="M4355 680 c-27 -11 -61 -49 -74 -83 -6 -16 -11 -61 -11 -100 1 -153
85 -215 253 -183 34 6 37 10 37 41 0 62 -6 66 -71 59 -60 -7 -89 3 -89 32 0
10 23 14 88 16 l87 3 3 55 c4 75 -19 134 -62 154 -36 17 -127 20 -161 6z m89
-106 c9 -3 16 -15 16 -25 0 -14 -7 -19 -30 -19 -22 0 -30 5 -30 18 0 30 13 38
44 26z"/>
<path d="M4644 671 c-59 -36 -68 -134 -18 -184 13 -13 42 -32 64 -42 22 -10
40 -22 40 -27 0 -11 -37 -10 -77 1 -37 11 -43 2 -43 -60 0 -32 4 -39 23 -43
142 -29 217 6 217 100 0 65 -22 99 -80 126 -28 13 -50 27 -50 32 0 5 24 6 55
2 60 -7 58 -9 68 71 4 38 -7 43 -103 43 -47 0 -74 -6 -96 -19z"/>
</g>
</svg>
